<?xml version="1.0" encoding="iso-8859-1"?>
<!-- Generator: Adobe Illustrator 25.2.1, SVG Export Plug-In . SVG Version: 6.00 Build 0)  -->
<svg version="1.1" id="Layer_1" xmlns="http://www.w3.org/2000/svg" xmlns:xlink="http://www.w3.org/1999/xlink" x="0px" y="0px"
	 viewBox="0 0 1920 1080" enable-background="new 0 0 1920 1080" xml:space="preserve">
<g>
	<path d="M457.97,720.01c-0.05,0-0.1,0-0.15,0c-34.61,0.04-62.64,28.13-62.6,62.75c0.04,34.61,28.13,62.64,62.75,62.6
		c34.61-0.04,62.64-28.13,62.6-62.75C520.53,748.05,492.53,720.05,457.97,720.01z"/>
	<g>
		<path stroke="#912222" stroke-width="0.25" stroke-miterlimit="10" d="M702.31,722.9c-0.05,0-0.1,0-0.15,0
			c-34.61,0.04-62.64,28.13-62.6,62.75c0.04,34.61,28.13,62.64,62.75,62.6c34.61-0.04,62.64-28.13,62.6-62.75
			C764.86,750.94,736.86,722.94,702.31,722.9z"/>
		<path stroke="#912222" stroke-width="0.25" stroke-miterlimit="10" d="M703.34,689.82c-50.84,0-92.05,41.21-92.05,92.05
			c0,50.84,41.21,92.05,92.05,92.05c50.84,0,92.05-41.21,92.05-92.05C795.39,731.03,754.18,689.82,703.34,689.82z M703.09,860.55
			c-41.41,0.05-75.02-33.48-75.07-74.89c-0.05-41.41,33.48-75.02,74.89-75.07c0.06,0,0.12,0,0.18,0
			c41.34,0.05,74.84,33.55,74.89,74.89C778.03,826.89,744.51,860.5,703.09,860.55z"/>
	</g>
	<g>
		<path stroke="#912222" stroke-width="0.25" stroke-miterlimit="10" d="M1161.85,722.9c-0.05,0-0.1,0-0.15,0
			c-34.61,0.04-62.64,28.13-62.6,62.75c0.04,34.61,28.13,62.64,62.75,62.6c34.61-0.04,62.64-28.13,62.6-62.75
			C1224.41,750.94,1196.41,722.94,1161.85,722.9z"/>
		<path stroke="#912222" stroke-width="0.25" stroke-miterlimit="10" d="M1162.89,689.82c-50.84,0-92.05,41.21-92.05,92.05
			c0,50.84,41.21,92.05,92.05,92.05c50.84,0,92.05-41.21,92.05-92.05C1254.94,731.03,1213.72,689.82,1162.89,689.82z
			 M1162.64,860.55c-41.41,0.05-75.02-33.48-75.07-74.89c-0.05-41.41,33.48-75.02,74.89-75.07c0.06,0,0.12,0,0.18,0
			c41.34,0.05,74.84,33.55,74.89,74.89C1237.58,826.89,1204.05,860.5,1162.64,860.55z"/>
	</g>
	<path d="M1408.64,717.87c-0.05,0-0.1,0-0.15,0c-34.61,0.04-62.64,28.13-62.6,62.75c0.04,34.61,28.13,62.64,62.75,62.6
		c34.61-0.04,62.64-28.13,62.6-62.75C1471.2,745.91,1443.2,717.91,1408.64,717.87z"/>
	<path fill="none" d="M482.42,620.64c9.6,0,19.2,0,28.8,0c0.01-0.35,0.02-0.7,0.03-1.06c-9.63,0-19.26,0-28.89,0
		C482.38,619.94,482.4,620.29,482.42,620.64z"/>
	<path fill="none" d="M313.12,617.38c22.27-4.92,44.21-11.38,66.16-17.64c36.6-10.45,73.09-21.26,109.63-31.91
		c12.02-3.5,19.23-14.64,19.57-30.87c0.27-13.28,0.21-26.58,0.3-39.86c0.1-14.88,0.05-29.77,0.41-44.65c0.1-4.3-1.34-5.44-5.41-5.41
		c-20.38,0.15-40.76,0.07-61.14,0.07c0-0.33-0.01-0.66-0.01-0.99c-22.49,0.54-44.98,1.06-67.46,1.68c-2.1,0.06-4.19,0.69-6.27,1.11
		c-7.82,1.59-13.42,5.42-17.67,12.8c-18.36,31.92-37.42,63.44-56.03,95.22c-1.68,2.86-2.67,6.56-2.68,9.88
		c-0.05,12.2-0.53,24.53,0.97,36.59C295.59,620.32,298.28,620.66,313.12,617.38z"/>
	<path fill="none" d="M424.99,662.83c21.34-1.75,42.76-2.56,64.17-3.38c11.47-0.44,22.97-0.08,34.94-0.08c0-11.1,0-20.58,0-31.18
		c-5.2,6.68-11.63,7.38-18.54,7.11c-7.26-0.28-14.53-0.02-21.8-0.12c-9.39-0.13-15.86-6.22-15.99-14.9
		c-0.13-8.94,6.31-15.34,15.96-15.47c9.04-0.12,18.13-0.43,27.1,0.39c4.54,0.42,8.88,3.14,13.69,4.97c0-58.67,0-118.24,0-178.85
		c-9.96,0-20.18,0.03-30.39-0.01c-35.27-0.11-70.55-0.56-105.82-0.18c-10.14,0.11-20.39,1.96-30.32,4.21
		c-4.74,1.08-8.85,4.96-12.81,8.38c12.47-8.85,26.67-10.87,41.31-10.87c42.72,0,85.43,0.18,128.15,0.34
		c5.47,0.02,8.46,2.48,8.44,7.39c-0.16,33.84,0.29,67.71-1.03,101.5c-0.88,22.52-12.87,34.67-34.45,40.83
		c-45.62,13.04-91.08,26.68-136.7,39.72c-13.59,3.88-27.44,7.05-41.33,9.63c-11.25,2.09-21.37-0.19-27.54-12.12
		c-0.68,34.44-1.35,68.87-2.04,104.12c5.22,0,9.94-0.01,14.66,0c21.45,0.06,42.9,0.05,64.34,0.26c3.23,0.03,5.11-1.09,6.98-3.6
		c10.26-13.79,21.19-27.1,30.89-41.27C403.88,669.39,413.32,663.79,424.99,662.83z"/>
	<path fill="none" d="M279.77,753.39c26.14,0.78,51.84,1.55,78.09,2.34c0.42-5.85,0.8-11.2,1.22-17.05c-26.23,0-51.97,0-78.21,0
		C280.54,743.22,280.19,747.88,279.77,753.39z"/>
	<path fill="none" d="M430.99,417.19c32.59-0.49,65.2,0.11,97.81,0.23c8.71,0.03,10.61,1.9,10.57,10.6
		c-0.33,73.87-0.66,147.73-1,221.6c-0.01,2.63,0,5.26,0,8.12c9.9,0,19.34,0,29.51,0c0-3.66-0.01-6.79,0-9.92
		c0.32-74.57,0.64-149.15,0.95-223.72c0.05-11.62-2.63-16.7-13.84-19.58c-12.26-3.15-25-5.84-37.57-6.05
		c-33.99-0.58-68.03-0.54-101.98,0.89c-14.65,0.62-29.25,4.76-43.63,8.3c-8.25,2.03-15.45,6.85-20.99,14.59
		C377.49,413.41,404.4,417.59,430.99,417.19z"/>
	<path fill="none" d="M1283.07,690.75c85.78,0.36,171.57,0.74,257.35,1.11c1.06,0,2.14-0.11,3.19,0.04c7.64,1.11,12.77,0,16.65-8.65
		c5.22-11.65,16.28-16.75,29.23-16.72c24.99,0.07,49.98,0.19,74.97,0.29c1.22,0,2.45,0,4.64,0c0-16.67-0.05-32.76,0.01-48.85
		c0.42-112.34,0.87-224.68,1.31-337.01c0.01-3.54,0.24-7.09,0.07-10.63c-0.55-11.44-8.38-19.08-19.89-19.16
		c-38.99-0.28-77.98-0.49-116.97-0.64c-109.89-0.44-219.77-0.85-329.66-1.28v441.17C1230.33,690.54,1256.7,690.64,1283.07,690.75z"
		/>
	<path fill="none" d="M588.02,701.17c-0.04,0.42-0.25,1.62-0.27,2.82c-0.16,11.54-6.03,17.56-17.83,17.69
		c-14.86,0.17-29.73,0.04-45.92,0.04c15.12,17.68,22.75,37.29,23.16,60.36c81.33,0,162.42,0,243.91,0v-77.41
		c-61.38-0.25-122.76-0.51-184.14-0.89C600.69,703.76,594.46,702.11,588.02,701.17z"/>
	<path fill="none" d="M610.28,248.32c-15.85-0.27-23.73,7.11-23.81,23.01c-0.25,50.32-0.4,100.64-0.6,150.96
		c-0.33,81.51-0.69,163.01-1,244.52c-0.06,15.59,7.17,22.79,22.64,22.85c61.19,0.25,122.37,0.51,183.56,0.77V249.25
		c-44.84-0.17-89.69-0.34-134.53-0.52C641.11,248.67,625.69,248.58,610.28,248.32z"/>
	<path fill="none" d="M280.37,767.59c-0.43,0.71-0.86,1.42-1.29,2.13c1.38,0.92,2.73,2.6,4.14,2.65c23,0.74,46,1.32,69.01,1.74
		c1.49,0.03,3-1.44,4.51-2.21c-0.24-0.68-0.47-1.36-0.71-2.04C330.8,769.1,305.58,768.35,280.37,767.59z"/>
	<path fill="none" d="M1505.13,738.74c-0.1-2.37-0.81-4.87-1.85-7.01c-3.39-7.01-7.34-13.75-10.52-20.84
		c-1.95-4.35-4.5-6.03-9.78-4.33c4.06,7.05,7.74,14.2,12.14,20.86c4.1,6.21,5.35,12.64,5.22,20.01
		c-0.38,21.92-0.14,43.84-0.14,66.23c2.59,0,4.66,0,6.86,0c0-7.25,0.17-14.28-0.03-21.3
		C1506.52,774.49,1505.89,756.61,1505.13,738.74z"/>
	<path fill="none" d="M1555.21,738.73c-0.21-10.58-0.07-21.17-0.07-32.35c-16.5,0-32.31,0-48.82,0c3.47,6.8,6.94,12.94,9.77,19.36
		c1.59,3.6,2.8,7.63,3.01,11.53c0.85,15.35,1.23,30.73,1.81,46.59c6.86,0,13.43,0.54,19.84-0.23c3.2-0.38,6.85-2.5,9.04-4.95
		c7.23-8.11,11.5-17.16,7.07-28.5C1555.5,746.68,1555.29,742.57,1555.21,738.73z"/>
	<path fill="none" d="M1408.4,709.23c-41.42,0.06-74.77,33.33-74.8,74.62c-0.03,41.6,33.36,75.25,74.79,75.34
		c41.33,0.09,75.08-33.62,75.15-75.07C1483.6,742.69,1449.98,709.18,1408.4,709.23z"/>
	<path fill="none" d="M496.74,694.12c3.96,1.86,8.04,4.16,10.99,7.27c4.06,4.28,8.85,5.82,14.23,5.9
		c15.93,0.24,31.87,0.16,47.81,0.27c2.71,0.02,3.86-1.04,3.69-3.8c-0.61-10.48-1.14-20.96-1.72-31.87c-2.78,0-4.14-0.03-5.51,0
		c-39.32,0.84-78.65,1.49-117.96,2.69c-9.29,0.29-18.65,1.95-27.73,4.04c-3.72,0.86-7.56,3.93-10.01,7.04
		c-11.41,14.45-22.48,29.18-33.36,44.04c-2.33,3.18-3.38,7.28-5.03,10.96c0.56,0.17,1.12,0.35,1.68,0.52
		c5.02-7.24,9.66-14.78,15.11-21.68C412.43,689.71,462.4,677.98,496.74,694.12z"/>
	<path fill="none" d="M457.25,706.84c-42.07,0.58-75.01,34.64-74.33,76.88c0.65,40.33,34.87,73.53,75.43,73.18
		c41.94-0.36,75.21-34.58,74.53-76.67C532.23,739.41,498.08,706.28,457.25,706.84z"/>
	<path fill="none" d="M1466.55,707.01c-0.85-1.27-4.15-1.07-6.34-1.26c-2.28-0.2-4.59-0.04-6.99-0.04
		c8.58,7.34,16.97,14.51,25.4,21.71C1474.74,720.72,1470.96,713.65,1466.55,707.01z"/>
	<path d="M1684.04,673.12c-1.02-0.79-18.36-6.28-19.59-6.29c-24.99-0.1-49.98-0.22-74.97-0.29c-12.95-0.04-24.01,5.07-29.23,16.72
		c-3.88,8.65-9.01,9.76-16.65,8.65c-1.04-0.15-2.12-0.04-3.19-0.04c-85.78-0.37-171.57-0.74-257.35-1.11
		c-26.37-0.11-52.74-0.22-79.11-0.33v14.26c26.5,0.11,53,0.21,79.51,0.32c11.28,0.05,22.57,0.01,33.85,0.01
		c0.13,0.43,0.25,0.86,0.38,1.29c-4.97,4.25-10.07,8.37-14.85,12.83c-1.7,1.58-3.56,3.9-3.77,6.03
		c-1.41,14.27-2.41,28.58-3.52,42.88c-0.38,4.95,2.16,7.57,6.85,8.46c4.52,0.86,9.06,1.67,13.53,2.74c1.3,0.31,2.41,1.44,4.67,2.85
		c-39.03,0-44.31,0-83.07,0v14.56c36.2,0.13,38.82,0.25,75.02,0.35c5.75,0.02,7.98,1.34,9.35,7.36
		c8.03,35.46,36.99,62.28,72.28,67.78c36.46,5.69,71.73-10.69,90.79-42.16c0.73-1.2,1.5-2.37,2.39-2.09c9.63,0,19.28,0.3,28.89-0.13
		c4.47-0.2,5.89-3.89,5.87-8.09c-0.05-6.9-0.01-13.79-0.01-21.63c2.55,0,5.64-0.05,8.73,0.01c21.71,0.37,31.7-6.32,39.57-26.52
		c0.31-0.8,0.73-1.57,0.42-0.92c8.51,1,16.28,2.55,24.08,2.7c21.97,0.43,43.96,0.31,65.94,0.37c19.52,0.06,31.07-8.85,36.09-27.76
		c0.13-0.48,0.53-0.88,0.81-1.31c0-16.66,0-33.32,0-49.98C1695.1,686.25,1691.22,678.71,1684.04,673.12z M1460.21,705.75
		c2.19,0.19,5.5-0.02,6.34,1.26c4.41,6.65,8.19,13.71,12.06,20.41c-8.43-7.2-16.81-14.37-25.4-21.71
		C1455.62,705.71,1457.93,705.55,1460.21,705.75z M1318.82,739.2c-0.49,8.4-1.77,16.76-2.75,25.48c-2.17-0.43-3.69-0.72-5.98-1.17
		c0.89-11.21,1.64-21.95,2.7-32.66c0.14-1.46,1.64-3.01,2.88-4.1c6.52-5.72,13.56-10.91,19.63-17.06c4.96-5.02,10.33-4.77,17.5-4.04
		c-9.71,7.72-18.38,14.89-27.38,21.65C1321.26,730.41,1319.13,733.9,1318.82,739.2z M1408.38,859.2
		c-41.42-0.09-74.82-33.74-74.79-75.34c0.03-41.29,33.38-74.57,74.8-74.62c41.58-0.06,75.21,33.46,75.14,74.89
		C1483.46,825.57,1449.71,859.29,1408.38,859.2z M1507.08,813.66c-2.2,0-4.27,0-6.86,0c0-22.38-0.24-44.31,0.14-66.23
		c0.13-7.37-1.12-13.8-5.22-20.01c-4.4-6.67-8.08-13.81-12.14-20.86c5.28-1.7,7.83-0.02,9.78,4.33c3.18,7.09,7.13,13.84,10.52,20.84
		c1.04,2.14,1.75,4.64,1.85,7.01c0.76,17.87,1.39,35.74,1.92,53.62C1507.25,799.38,1507.08,806.41,1507.08,813.66z M1549.79,778.68
		c-2.19,2.45-5.83,4.57-9.04,4.95c-6.41,0.76-12.98,0.23-19.84,0.23c-0.58-15.86-0.96-31.24-1.81-46.59
		c-0.22-3.9-1.42-7.92-3.01-11.53c-2.83-6.42-6.29-12.56-9.77-19.36c16.5,0,32.32,0,48.82,0c0,11.17-0.14,21.77,0.07,32.35
		c0.08,3.84,0.28,7.94,1.65,11.45C1561.29,761.52,1557.03,770.57,1549.79,778.68z M1683.25,739.28
		c-0.29,12.75-8.19,20.25-20.92,20.3c-11.86,0.05-23.72,0.01-35.58,0.01c0-0.09,0-0.18,0-0.27c-12.57,0-25.14,0.12-37.71-0.04
		c-11.06-0.14-19.53-8-19.75-18.81c-0.29-13.62-0.24-27.26,0.16-40.88c0.33-11.09,8.54-18.87,19.58-18.9
		c24.78-0.06,49.57,0,74.35,0.2c11.88,0.09,19.92,8.21,20.04,20.15C1683.56,713.8,1683.55,726.54,1683.25,739.28z"/>
	<path fill="none" stroke="#000000" stroke-width="11" stroke-miterlimit="10" d="M1505.54,609.01h-498.76
		c-14.89,0-26.96,12.07-26.96,26.96v55.21h552.67v-55.21C1532.49,621.07,1520.43,609.01,1505.54,609.01z"/>
	<line fill="none" stroke="#000000" stroke-width="12" stroke-miterlimit="10" x1="1042.47" y1="656.38" x2="1471.24" y2="656.38"/>
	<path fill="none" d="M566.23,671.9c-39.32,0.84-78.65,1.49-117.96,2.69c-9.29,0.29-18.65,1.95-27.73,4.04
		c-3.72,0.86-7.56,3.93-10.01,7.04c-11.41,14.45-22.48,29.18-33.36,44.04c-2.33,3.18-3.38,7.28-5.03,10.96
		c0.56,0.17,1.12,0.35,1.68,0.52c5.02-7.24,9.66-14.78,15.11-21.68c23.5-29.8,73.47-41.52,107.81-25.38
		c3.96,1.86,8.04,4.16,10.99,7.27c4.06,4.28,8.85,5.82,14.23,5.9c15.93,0.24,31.87,0.16,47.81,0.27c2.71,0.02,3.86-1.04,3.69-3.8
		c-0.61-10.48-1.14-20.96-1.72-31.87C568.96,671.9,567.59,671.87,566.23,671.9z"/>
	<path fill="none" d="M313.12,617.38c22.27-4.92,44.21-11.38,66.16-17.65c36.6-10.45,73.09-21.26,109.63-31.91
		c12.02-3.5,19.23-14.64,19.57-30.87c0.27-13.28,0.21-26.58,0.3-39.86c0.1-14.88,0.05-29.77,0.41-44.65c0.1-4.3-1.34-5.44-5.41-5.41
		c-20.38,0.15-40.76,0.07-61.14,0.07c0-0.33-0.01-0.66-0.01-0.99c-22.49,0.54-44.98,1.06-67.46,1.68c-2.1,0.06-4.19,0.69-6.27,1.11
		c-7.82,1.59-13.42,5.42-17.67,12.8c-18.36,31.92-37.42,63.44-56.03,95.22c-1.68,2.86-2.67,6.56-2.68,9.88
		c-0.05,12.2-0.53,24.53,0.97,36.59C295.59,620.32,298.28,620.66,313.12,617.38z"/>
	<path fill="none" d="M430.99,417.19c32.59-0.49,65.2,0.11,97.81,0.23c8.71,0.03,10.61,1.9,10.57,10.6
		c-0.33,73.87-0.66,147.73-1,221.6c-0.01,2.63,0,5.26,0,8.12c9.9,0,19.34,0,29.51,0c0-3.66-0.01-6.79,0-9.92
		c0.32-74.57,0.64-149.15,0.95-223.72c0.05-11.62-2.63-16.7-13.84-19.58c-12.26-3.15-25-5.84-37.57-6.05
		c-33.99-0.58-68.03-0.54-101.98,0.89c-14.65,0.62-29.25,4.76-43.63,8.3c-8.25,2.03-15.45,6.85-20.99,14.59
		C377.49,413.41,404.4,417.59,430.99,417.19z"/>
	<path fill="none" d="M248.96,688.6c0.04,11.33,0.01,22.66,0.01,34.47c5.5,0,10.85,0,16.85,0c1.11-55.75,2.22-111.59,3.35-168.47
		c-12.89,17.85-20.18,36.55-20.41,57.45C248.48,637.57,248.88,663.09,248.96,688.6z"/>
	<path fill="none" d="M262.37,737.8c-7.79,0.04-15.57,0.01-23.85,0.01c-3.12,10.11-3.56,20.54-2.96,30.85
		c0.94,16.29-1.78,12.44,13.55,13.8c5.09,0.45,10.25,0.07,16.54,0.07c0-7.56-0.1-14.6,0.03-21.63c0.11-6.2,0.28-12.4,0.79-18.57
		C266.73,738.98,265.51,737.78,262.37,737.8z"/>
	<path fill="none" d="M424.99,662.83c21.34-1.75,42.76-2.56,64.17-3.38c11.47-0.44,22.97-0.08,34.94-0.08c0-11.1,0-20.58,0-31.18
		c-5.2,6.68-11.63,7.38-18.54,7.11c-7.26-0.28-14.53-0.02-21.8-0.12c-9.39-0.13-15.86-6.22-15.99-14.9
		c-0.13-8.94,6.31-15.34,15.96-15.47c9.04-0.12,18.13-0.43,27.1,0.39c4.54,0.42,8.88,3.14,13.69,4.97c0-58.67,0-118.24,0-178.85
		c-9.96,0-20.18,0.03-30.39-0.01c-35.27-0.11-70.55-0.56-105.82-0.18c-10.14,0.11-20.39,1.96-30.32,4.21
		c-4.74,1.08-8.85,4.96-12.81,8.38c12.47-8.85,26.67-10.87,41.31-10.87c42.72,0,85.43,0.18,128.15,0.34
		c5.47,0.02,8.46,2.48,8.44,7.39c-0.16,33.84,0.29,67.71-1.03,101.5c-0.88,22.52-12.87,34.67-34.45,40.83
		c-45.62,13.04-91.08,26.68-136.7,39.72c-13.59,3.88-27.44,7.05-41.33,9.63c-11.25,2.09-21.37-0.19-27.54-12.12
		c-0.68,34.44-1.35,68.87-2.04,104.12c5.22,0,9.94-0.01,14.66,0c21.45,0.06,42.9,0.05,64.34,0.26c3.23,0.03,5.11-1.09,6.98-3.6
		c10.26-13.79,21.19-27.1,30.89-41.27C403.88,669.39,413.32,663.79,424.99,662.83z"/>
	<path fill="none" d="M557.72,795.71c-3.85-0.02-7.7,0-11.39,0c0,0.02-0.01,0.05-0.02,0.07
		C555.99,795.76,563.33,795.73,557.72,795.71z"/>
	<path fill="none" d="M280.37,767.59c-0.43,0.71-0.86,1.42-1.29,2.13c1.38,0.92,2.73,2.6,4.14,2.65c23,0.74,46,1.32,69.01,1.74
		c1.49,0.03,3-1.44,4.51-2.21c-0.24-0.68-0.47-1.36-0.71-2.04C330.8,769.1,305.58,768.35,280.37,767.59z"/>
	<path fill="none" d="M279.77,753.39c26.14,0.78,51.84,1.55,78.09,2.34c0.42-5.85,0.8-11.2,1.22-17.05c-26.23,0-51.97,0-78.21,0
		C280.54,743.22,280.19,747.88,279.77,753.39z"/>
	<path fill="none" d="M482.42,620.64c9.6,0,19.2,0,28.8,0c0.01-0.35,0.02-0.7,0.03-1.06c-9.63,0-19.26,0-28.89,0
		C482.38,619.94,482.4,620.29,482.42,620.64z"/>
	<path fill="none" d="M531.55,795.81c0.96-5.03,1.42-10.25,1.34-15.59c-0.65-40.82-34.8-73.95-75.63-73.39
		c-42.07,0.58-75.01,34.64-74.33,76.88c0.65,40.33,34.87,73.53,75.43,73.18c36.59-0.31,66.57-26.4,73.18-60.99
		C512.32,795.87,519.59,795.84,531.55,795.81z"/>
	<path fill="none" d="M886.18,725.16c-1.41,14.27-2.41,28.58-3.52,42.88c-0.34,4.34,1.57,6.88,5.21,8.05v-54.64
		C886.98,722.63,886.3,723.92,886.18,725.16z"/>
	<path fill="none" d="M889.51,776.5c-0.58-0.11-1.13-0.25-1.65-0.41v5.78h19.5c-2.02-1.31-3.09-2.33-4.32-2.62
		C898.57,778.17,894.03,777.36,889.51,776.5z"/>
	<path fill="none" d="M889.95,719.13c4.78-4.46,9.88-8.58,14.85-12.83c-0.13-0.43-0.25-0.86-0.38-1.29
		c-5.52,0-11.04,0.01-16.56,0.01v16.42C888.5,720.59,889.24,719.79,889.95,719.13z"/>
	<path fill="none" d="M899.89,730.84c-1.06,10.71-1.81,21.46-2.7,32.66c2.29,0.45,3.81,0.75,5.98,1.17
		c0.98-8.72,2.25-17.08,2.75-25.48c0.31-5.29,2.45-8.78,6.6-11.9c8.99-6.75,17.67-13.93,27.38-21.65
		c-7.17-0.73-12.54-0.98-17.5,4.04c-6.07,6.15-13.11,11.34-19.63,17.06C901.53,727.83,900.03,729.38,899.89,730.84z"/>
	<path d="M1203.96,704.69v-14.26c-26.7-0.11-166.97-0.22-321.71-0.34v14.26C1036.97,704.47,1177.19,704.58,1203.96,704.69z"/>
	<path d="M607.51,689.66c-15.47-0.06-22.7-7.26-22.64-22.85c0.31-81.51,0.67-163.01,1-244.52c0.2-50.32-13.9-28.08-13.9-25.54
		c-19.7-11.42-40.98-12.21-62.21-12.84c-36.15-1.07-72.35-2.24-108.32,2.53c-12.02,1.6-23.93,4.8-35.57,8.31
		c-10.89,3.28-19.62,10.18-26.87,19.14c-21.57,26.7-39.34,55.88-56.25,85.61c-12.52,22.01-24.9,44.1-36.9,66.39
		c-9.68,17.97-11.72,37.74-11.68,57.73c0.07,30.83,0.47,61.67,0.72,92.5c0.02,2.12,0,4.25,0,6.74c-8.04,2.4-10.81,9.12-11.32,16.26
		c-0.99,13.9-1.65,27.89-1.14,41.8c0.4,11.03,4.26,14.21,15.36,14.87c11.31,0.67,22.84,2.05,33.96,0.64
		c31.43-3.96,62.88-0.35,94.28-1.59c1.04-0.04,2.09,0.17,3.56,0.3c4.6,25.61,17.22,46.22,38.88,60.83
		c16.23,10.95,34.33,15.88,53.86,14.92c37.2-1.82,74.54-27.48,83.94-74.99c-2.45,0-4.93-0.01-7.47-0.01c-2.76,0-5.18-0.01-7.28-0.01
		c-6.61,34.6-36.59,60.68-73.18,60.99c-40.56,0.35-74.78-32.85-75.43-73.18c-0.68-42.23,32.26-76.3,74.33-76.88
		c40.83-0.56,74.98,32.57,75.63,73.39c0.09,5.34-0.38,10.55-1.34,15.59c4.64-0.01,9.99-0.02,14.76-0.03c0-0.02,0.01-0.05,0.02-0.07
		c3.7,0,7.55-0.01,11.39,0c5.61,0.02-1.73,0.05-11.41,0.07c-0.01,0.05-0.02,0.09-0.03,0.14c206.89,0.25,20.98,0.51,81.75,0.73
		l0-14.56c-3.27,0,38.89,0,37.27,0c-1.88,0-2.74,0-2.72,0c-56.76,0-98.69,0-115.41,0c-0.4-23.07-8.04-42.68-23.16-60.36
		c16.19,0,31.06,0.13,45.92-0.04c11.79-0.14,17.66-6.16,17.83-17.69c0.02-1.2,0.23-2.41,0.27-2.82c6.44,0.94,12.67,2.59,18.91,2.63
		c24.39,0.15,142.99,0.28,280.93,0.4v-14.24C750.15,689.86,631.8,689.76,607.51,689.66z M266.46,742.32
		c-0.51,6.17-0.68,12.38-0.79,18.57c-0.12,7.04-0.03,14.08-0.03,21.63c-6.3,0-11.46,0.38-16.54-0.07
		c-15.33-1.35-12.61,2.49-13.55-13.8c-0.59-10.32-0.16-20.74,2.96-30.85c8.28,0,16.07,0.03,23.85-0.01
		C265.51,737.78,266.73,738.98,266.46,742.32z M265.82,723.07c-6.01,0-11.35,0-16.85,0c0-11.82,0.03-23.14-0.01-34.47
		c-0.08-25.51-0.48-51.03-0.2-76.54c0.23-20.91,7.51-39.6,20.41-57.45C268.04,611.49,266.93,667.32,265.82,723.07z M371.79,407.65
		c14.38-3.54,28.98-7.68,43.63-8.3c33.95-1.43,68-1.48,101.98-0.89c12.58,0.22,25.32,2.9,37.57,6.05
		c11.21,2.88,13.89,7.96,13.84,19.58c-0.3,74.57-0.63,149.15-0.95,223.72c-0.01,3.13,0,6.26,0,9.92c-10.17,0-19.62,0-29.51,0
		c0-2.86-0.01-5.49,0-8.12c0.33-73.87,0.67-147.73,1-221.6c0.04-8.7-1.85-10.57-10.57-10.6c-32.6-0.12-65.21-0.72-97.81-0.23
		c-26.58,0.4-53.5-3.78-80.19,5.05C356.34,414.5,363.54,409.68,371.79,407.65z M292.52,566.79c0.01-3.32,1.01-7.02,2.68-9.88
		c18.61-31.78,37.67-63.3,56.03-95.22c4.24-7.38,9.84-11.21,17.67-12.8c2.08-0.42,4.17-1.05,6.27-1.11
		c22.49-0.61,44.98-1.13,67.46-1.68c0,0.33,0.01,0.66,0.01,0.99c20.38,0,40.76,0.08,61.14-0.07c4.07-0.03,5.51,1.11,5.41,5.41
		c-0.36,14.88-0.31,29.76-0.41,44.65c-0.09,13.29-0.02,26.58-0.3,39.86c-0.33,16.23-7.55,27.37-19.57,30.87
		c-36.54,10.65-73.04,21.46-109.63,31.91c-21.95,6.27-43.9,12.73-66.16,17.65c-14.85,3.28-17.54,2.94-19.64-14
		C291.99,591.32,292.47,579,292.52,566.79z M352.22,774.12c-23.01-0.43-46.01-1.01-69.01-1.74c-1.41-0.05-2.76-1.73-4.14-2.65
		c0.43-0.71,0.86-1.42,1.29-2.13c25.22,0.76,50.43,1.51,75.65,2.27c0.24,0.68,0.47,1.36,0.71,2.04
		C355.22,772.67,353.71,774.14,352.22,774.12z M357.87,755.73c-26.25-0.79-51.96-1.56-78.09-2.34c0.42-5.51,0.77-10.17,1.11-14.7
		c26.24,0,51.98,0,78.21,0C358.67,744.53,358.29,749.87,357.87,755.73z M365.96,720.92c-1.86,2.51-3.75,3.63-6.98,3.6
		c-21.45-0.21-42.9-0.2-64.34-0.26c-4.72-0.01-9.45,0-14.66,0c0.69-35.25,1.37-69.69,2.04-104.12
		c6.17,11.93,16.29,14.21,27.54,12.12c13.9-2.58,27.74-5.75,41.33-9.63c45.63-13.03,91.08-26.68,136.7-39.72
		c21.58-6.17,33.57-18.31,34.45-40.83c1.32-33.8,0.87-67.66,1.03-101.5c0.02-4.91-2.97-7.36-8.44-7.39
		c-42.72-0.16-85.43-0.34-128.15-0.34c-14.63,0-28.84,2.02-41.31,10.87c3.96-3.42,8.06-7.31,12.81-8.38
		c9.93-2.25,20.18-4.1,30.32-4.21c35.27-0.38,70.55,0.07,105.82,0.18c10.22,0.03,20.43,0.01,30.39,0.01c0,60.61,0,120.18,0,178.85
		c-4.82-1.83-9.15-4.56-13.69-4.97c-8.97-0.82-18.06-0.51-27.1-0.39c-9.65,0.13-16.09,6.53-15.96,15.47
		c0.13,8.68,6.6,14.77,15.99,14.9c7.27,0.1,14.54-0.16,21.8,0.12c6.92,0.27,13.34-0.43,18.54-7.11c0,10.61,0,20.08,0,31.18
		c-11.97,0-23.47-0.36-34.94,0.08c-21.4,0.82-42.83,1.63-64.17,3.38c-11.67,0.96-21.11,6.56-28.14,16.82
		C387.15,693.82,376.22,707.14,365.96,720.92z M511.26,619.59c-0.01,0.35-0.02,0.7-0.03,1.06c-9.6,0-19.2,0-28.8,0
		c-0.02-0.35-0.04-0.7-0.06-1.06C492,619.59,501.63,619.59,511.26,619.59z M569.77,707.56c-15.94-0.11-31.87-0.04-47.81-0.27
		c-5.37-0.08-10.17-1.61-14.23-5.9c-2.95-3.11-7.03-5.41-10.99-7.27c-34.34-16.14-84.31-4.42-107.81,25.38
		c-5.45,6.91-10.09,14.44-15.11,21.68c-0.56-0.17-1.12-0.35-1.68-0.52c1.64-3.68,2.7-7.78,5.03-10.96
		c10.89-14.85,21.95-29.58,33.36-44.04c2.46-3.11,6.3-6.18,10.01-7.04c9.08-2.09,18.43-3.76,27.73-4.04
		c39.31-1.21,78.64-1.85,117.96-2.69c1.37-0.03,2.73,0,5.51,0c0.58,10.91,1.11,21.39,1.72,31.87
		C573.62,706.52,572.48,707.58,569.77,707.56z"/>
	<path d="M531.53,795.9c0.01-0.03,0.01-0.06,0.02-0.09C519.59,795.84,512.32,795.87,531.53,795.9z"/>
	<path d="M531.55,795.81c-0.01,0.03-0.01,0.06-0.02,0.09c2.1,0,4.51,0.01,7.28,0.01c2.55,0,5.03,0.01,7.47,0.01
		c0.01-0.05,0.02-0.09,0.03-0.14C541.53,795.79,536.19,795.8,531.55,795.81z"/>
	<path d="M1072.12,796.35c0,0,10.1-12.53-1.28-14.49H791.06v14.49H1072.12z"/>
</g>
</svg>
